<?xml version="1.0" standalone="no"?>
<!DOCTYPE svg PUBLIC "-//W3C//DTD SVG 20010904//EN"
 "http://www.w3.org/TR/2001/REC-SVG-20010904/DTD/svg10.dtd">
<svg version="1.0" xmlns="http://www.w3.org/2000/svg"
 width="110.000000pt" height="110.000000pt" viewBox="0 0 110.000000 110.000000"
 preserveAspectRatio="xMidYMid meet">
<metadata>
Created by potrace 1.11, written by Peter Selinger 2001-2013
</metadata>
<g transform="translate(0.000000,110.000000) scale(0.100000,-0.100000)"
fill="#000000" stroke="none">
<path d="M231 1053 c-33 -17 -33 -13 -34 -141 0 -67 -2 -73 -21 -71 -58 4 -85
-3 -110 -27 l-26 -27 0 -219 c0 -124 4 -227 10 -238 16 -30 58 -37 227 -36
223 1 208 -18 209 259 1 267 -7 288 -105 289 l-51 0 0 87 c0 120 -29 157 -99
124z m-21 -353 c19 -10 19 -11 -1 -31 -16 -16 -18 -23 -8 -35 7 -8 18 -13 26
-10 11 4 11 1 3 -15 -15 -27 -49 -38 -82 -27 -16 6 -28 11 -28 12 0 0 -4 16
-9 33 -17 60 43 103 99 73z m182 -1 l20 -11 -21 -14 c-17 -12 -19 -19 -10 -35
6 -12 17 -18 25 -15 20 8 17 -8 -6 -29 -42 -38 -112 -7 -112 49 0 53 54 82
104 55z m-12 -204 c0 -3 -6 -20 -14 -38 -29 -70 -120 -90 -175 -39 -17 15 -33
39 -37 55 l-6 27 116 0 c64 0 116 -2 116 -5z"/>
<path d="M651 838 c-45 -16 -49 -39 -47 -280 1 -221 2 -228 23 -250 17 -16 35
-22 75 -24 l53 -1 3 -91 c3 -85 4 -92 29 -112 27 -21 66 -21 88 1 6 6 12 53
15 107 l5 96 54 1 c45 1 57 5 77 28 24 28 24 31 24 247 0 230 -5 264 -44 277
-29 9 -330 11 -355 1z m127 -145 c67 -57 -14 -155 -83 -102 -27 22 -34 42 -12
33 8 -3 20 3 28 12 12 14 10 19 -9 34 -21 18 -21 19 -5 29 27 16 58 13 81 -6z
m173 6 c45 -24 42 -100 -5 -116 -38 -12 -45 -11 -71 9 -27 21 -34 41 -12 32 8
-3 20 2 27 11 10 12 10 18 0 30 -7 8 -16 12 -21 9 -17 -10 -9 9 9 22 21 16 47
17 73 3z m-16 -226 c-15 -63 -93 -103 -153 -77 -32 13 -60 48 -67 83 -4 20 -1
21 112 21 l115 0 -7 -27z"/>
</g>
</svg>
